<?xml version="1.0" encoding="UTF-8" standalone="no" ?>
<!DOCTYPE svg PUBLIC "-//W3C//DTD SVG 1.1//EN" "http://www.w3.org/Graphics/SVG/1.1/DTD/svg11.dtd">
<svg xmlns="http://www.w3.org/2000/svg" xmlns:xlink="http://www.w3.org/1999/xlink" version="1.1" width="500" height="500" viewBox="0 0 500 500" xml:space="preserve">
<!-- Created with SVG Stack Editor - https://svgstack.com -->
<defs>
</defs>
<rect x="0" y="0" width="100%" height="100%" fill="transparent"></rect>
<g transform="matrix(4.13 0 0 4.13 250 250)"  >
<g style=""   >
		<g transform="matrix(1 0 0 1 0 0)" id="path_0"  >
<path style="stroke: none; stroke-width: 1; stroke-dasharray: none; stroke-linecap: butt; stroke-dashoffset: 0; stroke-linejoin: miter; stroke-miterlimit: 4; fill: rgb(0,0,0); fill-opacity: 0; fill-rule: evenodd; opacity: 1;"  transform=" translate(-60, -60)" d="M 27.0996 0 L 92.9004 0 C 100.081 0.0207088 106.962 2.89579 112.04 7.99716 C 117.118 13.0985 119.979 20.0115 120 27.2259 L 120 92.7839 C 119.977 99.9966 117.114 106.907 112.037 112.006 C 106.959 117.106 100.08 119.979 92.9004 120 L 27.0996 120 C 19.9204 119.979 13.0409 117.106 7.9635 112.006 C 2.88607 106.907 0.0231876 99.9966 0 92.7839 L 0 27.2259 C 0.0206128 20.0115 2.88236 13.0985 7.96006 7.99716 C 13.0378 2.89579 19.9187 0.0207088 27.0996 0 Z" stroke-linecap="round" />
</g>
		<g transform="matrix(1 0 0 1 -0.01 0.02)" id="path_1"  >
<path style="stroke: none; stroke-width: 1; stroke-dasharray: none; stroke-linecap: butt; stroke-dashoffset: 0; stroke-linejoin: miter; stroke-miterlimit: 4; fill: rgb(255,255,255); fill-rule: evenodd; opacity: 1;"  transform=" translate(-59.99, -60.02)" d="M 48.0371 46.5147 L 63.2031 46.5147 L 63.2031 54.3636 L 63.418 54.3636 C 65.5371 50.5569 70.6934 46.5147 78.3984 46.5147 C 94.4043 46.5147 97.3633 56.522 97.3633 69.5414 L 97.3633 97.0715 L 81.5527 97.0715 L 81.5527 72.6025 C 81.5527 67.0003 81.4356 59.7891 73.3301 59.7891 C 65.2246 59.7891 63.8379 65.8819 63.8379 72.2002 L 63.8379 97.1205 L 48.0371 97.1205 L 48.0371 46.5147 Z M 39.0625 31.1897 C 39.0625 32.8236 38.5803 34.4207 37.6767 35.7792 C 36.7732 37.1378 35.489 38.1966 33.9865 38.8218 C 32.484 39.4471 30.8307 39.6107 29.2357 39.2919 C 27.6406 38.9732 26.1755 38.1864 25.0256 37.0311 C 23.8756 35.8758 23.0925 34.4038 22.7752 32.8013 C 22.4579 31.1988 22.6207 29.5378 23.2431 28.0283 C 23.8655 26.5189 24.9194 25.2287 26.2716 24.3209 C 27.6238 23.4132 29.2136 22.9287 30.8398 22.9287 C 33.0198 22.9313 35.1098 23.8025 36.6513 25.3512 C 38.1928 26.8998 39.0599 28.9995 39.0625 31.1897 Z M 22.6367 46.5147 L 39.0625 46.5147 L 39.0625 97.0715 L 22.6367 97.0715 L 22.6367 46.5147 Z" stroke-linecap="round" />
</g>
</g>
</g>
<g transform="matrix(4.13 0 0 4.13 250 250)"  >
<g style=""   >
		<g transform="matrix(1 0 0 1 0 0)" id="path_0"  >
<path style="stroke: none; stroke-width: 1; stroke-dasharray: none; stroke-linecap: butt; stroke-dashoffset: 0; stroke-linejoin: miter; stroke-miterlimit: 4; fill: rgb(0,0,0); fill-opacity: 0; fill-rule: evenodd; opacity: 1;"  transform=" translate(-60, -60)" d="M 27.0996 0 L 92.9004 0 C 100.081 0.0207088 106.962 2.89579 112.04 7.99716 C 117.118 13.0985 119.979 20.0115 120 27.2259 L 120 92.7839 C 119.977 99.9966 117.114 106.907 112.037 112.006 C 106.959 117.106 100.08 119.979 92.9004 120 L 27.0996 120 C 19.9204 119.979 13.0409 117.106 7.9635 112.006 C 2.88607 106.907 0.0231876 99.9966 0 92.7839 L 0 27.2259 C 0.0206128 20.0115 2.88236 13.0985 7.96006 7.99716 C 13.0378 2.89579 19.9187 0.0207088 27.0996 0 Z" stroke-linecap="round" />
</g>
		<g transform="matrix(1 0 0 1 -0.01 0.02)" id="path_1"  >
<path style="stroke: none; stroke-width: 1; stroke-dasharray: none; stroke-linecap: butt; stroke-dashoffset: 0; stroke-linejoin: miter; stroke-miterlimit: 4; fill: rgb(255,255,255); fill-rule: evenodd; opacity: 1;"  transform=" translate(-59.99, -60.02)" d="M 48.0371 46.5147 L 63.2031 46.5147 L 63.2031 54.3636 L 63.418 54.3636 C 65.5371 50.5569 70.6934 46.5147 78.3984 46.5147 C 94.4043 46.5147 97.3633 56.522 97.3633 69.5414 L 97.3633 97.0715 L 81.5527 97.0715 L 81.5527 72.6025 C 81.5527 67.0003 81.4356 59.7891 73.3301 59.7891 C 65.2246 59.7891 63.8379 65.8819 63.8379 72.2002 L 63.8379 97.1205 L 48.0371 97.1205 L 48.0371 46.5147 Z M 39.0625 31.1897 C 39.0625 32.8236 38.5803 34.4207 37.6767 35.7792 C 36.7732 37.1378 35.489 38.1966 33.9865 38.8218 C 32.484 39.4471 30.8307 39.6107 29.2357 39.2919 C 27.6406 38.9732 26.1755 38.1864 25.0256 37.0311 C 23.8756 35.8758 23.0925 34.4038 22.7752 32.8013 C 22.4579 31.1988 22.6207 29.5378 23.2431 28.0283 C 23.8655 26.5189 24.9194 25.2287 26.2716 24.3209 C 27.6238 23.4132 29.2136 22.9287 30.8398 22.9287 C 33.0198 22.9313 35.1098 23.8025 36.6513 25.3512 C 38.1928 26.8998 39.0599 28.9995 39.0625 31.1897 Z M 22.6367 46.5147 L 39.0625 46.5147 L 39.0625 97.0715 L 22.6367 97.0715 L 22.6367 46.5147 Z" stroke-linecap="round" />
</g>
</g>
</g>
</svg>